<svg xmlns="http://www.w3.org/2000/svg" viewBox="0 0 985 985">
<path d="M0 0 C1.95965195 -0.00855011 1.95965195 -0.00855011 3.95889282 -0.01727295 C6.71706518 -0.02769362 9.47520926 -0.03359086 12.23339844 -0.03710938 C14.98841983 -0.04144205 17.74311882 -0.05514591 20.49804688 -0.078125 C46.61241332 -0.29110326 72.33542909 1.42758837 98.1015625 5.953125 C98.83778839 6.07940277 99.57401428 6.20568054 100.33255005 6.33578491 C125.79598552 10.71621659 150.49878875 17.11177118 175.0390625 25.203125 C175.9583252 25.50186523 176.87758789 25.80060547 177.82470703 26.10839844 C225.60552532 41.71661695 270.8808086 66.08938749 311.0390625 96.203125 C311.65104492 96.66203125 312.26302734 97.1209375 312.89355469 97.59375 C327.57264996 108.65389934 342.43770599 120.189703 355.25390625 133.4140625 C357.09055249 135.25472766 359.00262196 136.94867596 360.9765625 138.640625 C367.49471996 144.2641334 373.44907775 150.39271557 379.04296875 156.9296875 C381.06151069 159.22869221 383.14645828 161.4569015 385.24438477 163.68334961 C391.42675018 170.26634246 397.07487071 177.1223501 402.56005859 184.29150391 C404.11017167 186.29503402 405.69015366 188.27182984 407.27734375 190.24609375 C465.66850124 263.28523359 500.47820775 355.35021317 510.2421875 475.1640625 C510.24788757 476.47049713 510.25358765 477.77693176 510.25946045 479.12295532 C510.26988112 481.88112768 510.27577836 484.63927176 510.27929688 487.39746094 C510.28362955 490.15248233 510.29733341 492.90718132 510.3203125 495.66210938 C510.53329076 521.77647582 508.81459913 547.49949159 504.2890625 573.265625 C504.16278473 574.00185089 504.03650696 574.73807678 503.90640259 575.49661255 C499.52597091 600.96004802 493.13041632 625.66285125 485.0390625 650.203125 C484.74032227 651.1223877 484.44158203 652.04165039 484.13378906 652.98876953 C468.52557055 700.76958782 444.15280001 746.0448711 414.0390625 786.203125 C413.58015625 786.81510742 413.12125 787.42708984 412.6484375 788.05761719 C401.58828816 802.73671246 390.0524845 817.60176849 376.828125 830.41796875 C374.98745984 832.25461499 373.29351154 834.16668446 371.6015625 836.140625 C365.9780541 842.65878246 359.84947193 848.61314025 353.3125 854.20703125 C351.01349529 856.22557319 348.785286 858.31052078 346.55883789 860.40844727 C339.97584504 866.59081268 333.1198374 872.23893321 325.95068359 877.72412109 C323.94715348 879.27423417 321.97035766 880.85421616 319.99609375 882.44140625 C246.95695391 940.83256374 154.89197433 975.64227025 35.078125 985.40625 C33.77169037 985.41195007 32.46525574 985.41765015 31.11923218 985.42352295 C28.36105982 985.43394362 25.60291574 985.43984086 22.84472656 985.44335938 C20.08970517 985.44769205 17.33500618 985.46139591 14.58007812 985.484375 C-11.53428832 985.69735326 -37.25730409 983.97866163 -63.0234375 979.453125 C-63.75966339 979.32684723 -64.49588928 979.20056946 -65.25442505 979.07046509 C-90.71786052 974.69003341 -115.42066375 968.29447882 -139.9609375 960.203125 C-140.8802002 959.90438477 -141.79946289 959.60564453 -142.74658203 959.29785156 C-190.52740032 943.68963305 -235.8026836 919.31686251 -275.9609375 889.203125 C-276.57291992 888.74421875 -277.18490234 888.2853125 -277.81542969 887.8125 C-292.49452496 876.75235066 -307.35958099 865.216547 -320.17578125 851.9921875 C-322.01242749 850.15152234 -323.92449696 848.45757404 -325.8984375 846.765625 C-332.41659496 841.1421166 -338.37095275 835.01353443 -343.96484375 828.4765625 C-345.98338569 826.17755779 -348.06833328 823.9493485 -350.16625977 821.72290039 C-356.34862518 815.13990754 -361.99674571 808.2838999 -367.48193359 801.11474609 C-369.03204667 799.11121598 -370.61202866 797.13442016 -372.19921875 795.16015625 C-430.59037624 722.12101641 -465.40008275 630.05603683 -475.1640625 510.2421875 C-475.16976257 508.93575287 -475.17546265 507.62931824 -475.18133545 506.28329468 C-475.19175612 503.52512232 -475.19765336 500.76697824 -475.20117188 498.00878906 C-475.20550455 495.25376767 -475.21920841 492.49906868 -475.2421875 489.74414062 C-475.45516576 463.62977418 -473.73647413 437.90675841 -469.2109375 412.140625 C-469.08465973 411.40439911 -468.95838196 410.66817322 -468.82827759 409.90963745 C-464.44784591 384.44620198 -458.05229132 359.74339875 -449.9609375 335.203125 C-449.66219727 334.2838623 -449.36345703 333.36459961 -449.05566406 332.41748047 C-433.44744555 284.63666218 -409.07467501 239.3613789 -378.9609375 199.203125 C-378.50203125 198.59114258 -378.043125 197.97916016 -377.5703125 197.34863281 C-366.51016316 182.66953754 -354.9743595 167.80448151 -341.75 154.98828125 C-339.90933484 153.15163501 -338.21538654 151.23956554 -336.5234375 149.265625 C-330.8999291 142.74746754 -324.77134693 136.79310975 -318.234375 131.19921875 C-315.93537029 129.18067681 -313.707161 127.09572922 -311.48071289 124.99780273 C-304.89772004 118.81543732 -298.0417124 113.16731679 -290.87255859 107.68212891 C-288.86902848 106.13201583 -286.89223266 104.55203384 -284.91796875 102.96484375 C-211.87882891 44.57368626 -119.81384933 9.76397975 0 0 Z " fill="#F8F7F5" transform="translate(474.9609375,-0.203125)"/>
<path d="M0 0 C4.543915 2.57089928 7.44630792 5.40577073 10.5625 9.5625 C10.97959229 10.11695801 11.39668457 10.67141602 11.82641602 11.24267578 C16.09631281 16.98938485 20.09985472 22.92334724 24.11376953 28.85009766 C27.46176682 33.78631035 30.88228284 38.64857188 34.4375 43.4375 C40.05729499 51.00778651 45.44814721 58.73229633 50.8359375 66.46875 C53.5281705 70.33385309 56.25344076 74.1733332 59 78 C67.31293879 67.74801544 74.81474764 56.89334418 82.22998047 45.984375 C85.83761104 40.68161852 89.50351828 35.42908287 93.25097656 30.22436523 C95.55776194 27.0204446 97.8445071 23.80405596 100.109375 20.5703125 C100.64167725 19.81121582 101.17397949 19.05211914 101.72241211 18.27001953 C102.75135135 16.80109936 103.77833905 15.33080942 104.80297852 13.85888672 C113.65207449 1.24226443 113.65207449 1.24226443 118 0 C122.81665605 -0.46612801 125.01211413 -0.52190197 129.3125 1.75 C132.39210996 4.32827811 134.68157544 6.28739225 135.43359375 10.33203125 C135.43488281 11.15058594 135.43617188 11.96914062 135.4375 12.8125 C135.46650391 14.02873047 135.46650391 14.02873047 135.49609375 15.26953125 C134.25794156 22.08424291 129.02169399 27.90854409 125 33.375 C123.83386951 34.97470238 122.66852278 36.57497634 121.50390625 38.17578125 C120.62436279 39.38355225 120.62436279 39.38355225 119.72705078 40.61572266 C117.09965543 44.24296933 114.51521934 47.89985179 111.9375 51.5625 C111.44556152 52.26125244 110.95362305 52.96000488 110.44677734 53.67993164 C109.45596953 55.08787896 108.46540843 56.49599991 107.47509766 57.90429688 C106.01065484 59.98486243 104.54305809 62.06316142 103.07421875 64.140625 C96.89904747 72.87513451 90.75148266 81.62842509 84.63134766 90.40161133 C84.07108887 91.2036499 83.51083008 92.00568848 82.93359375 92.83203125 C82.43915771 93.54077393 81.94472168 94.2495166 81.43530273 94.97973633 C80 97 80 97 78.25415039 99.01049805 C76.79495056 100.89022596 76.79495056 100.89022596 77.14135742 102.98950195 C78.11962535 105.28010088 79.29210722 107.13797148 80.73828125 109.16796875 C81.30498535 109.97000732 81.87168945 110.7720459 82.45556641 111.59838867 C83.06835449 112.45279541 83.68114258 113.30720215 84.3125 114.1875 C84.94333496 115.07735596 85.57416992 115.96721191 86.22412109 116.8840332 C87.52246107 118.71478715 88.82325379 120.54380405 90.12646484 122.37109375 C92.31684384 125.44458881 94.49180306 128.52870387 96.66479492 131.61450195 C98.13120658 133.69631124 99.60030851 135.77619481 101.0703125 137.85546875 C104.55120705 142.77917898 108.02799085 147.70578716 111.50488281 152.63232422 C113.97864556 156.13722329 116.45320299 159.64155467 118.9296875 163.14453125 C124.90402057 171.59757697 130.85199034 180.06859593 136.78417969 188.55126953 C142.01199197 196.02389806 147.2676338 203.47659624 152.53222656 210.92333984 C155.52533391 215.15809884 158.51473609 219.39547453 161.50488281 223.63232422 C163.97864556 227.13722329 166.45320299 230.64155467 168.9296875 234.14453125 C174.90706696 242.6018873 180.8587103 251.07678281 186.79296875 259.56445312 C190.47211612 264.82442096 194.16700874 270.07283765 197.875 275.3125 C203.26707758 282.93568816 208.60002062 290.59941136 213.92822266 298.26733398 C223.05695907 311.40335719 232.22702225 324.50999194 241.46411133 337.57006836 C244.12126287 341.32942621 246.76818116 345.09558455 249.40234375 348.87109375 C255.06080061 356.98120808 260.74596998 365.06477123 266.5625 373.0625 C271.51783144 379.88207266 276.3210581 386.79263105 281.06152344 393.76293945 C285.50383569 400.2916515 290.01746702 406.76767557 294.55395508 413.23120117 C299.09606385 419.70390976 303.61404236 426.19305011 308.125 432.6875 C314.23595002 441.48079014 320.38520413 450.24569097 326.57324219 458.98486328 C334.00785385 469.48542534 341.41072684 480.0076759 348.78417969 490.55126953 C355.00727969 499.44656113 361.26994689 508.31371814 367.53955078 517.17626953 C370.56493117 521.45313915 373.58698572 525.73230787 376.60253906 530.01611328 C377.51735089 531.31481364 378.43332222 532.6126982 379.35058594 533.90966797 C380.59193381 535.66614251 381.82793254 537.42625573 383.0625 539.1875 C383.75472656 540.17105469 384.44695313 541.15460937 385.16015625 542.16796875 C388.73506183 547.67074273 390.64373733 551.30509627 389.64453125 557.81640625 C388.40509333 562.0154717 385.88182027 564.85477742 382.11986013 567.14419994 C379.72024911 568.11293709 377.97759398 568.25196956 375.3947379 568.255301 C374.46728846 568.26133294 373.53983902 568.26736487 372.58428505 568.2735796 C371.05806387 568.26827118 371.05806387 568.26827118 369.50100994 568.26285553 C368.41455583 568.2669608 367.32810173 568.27106606 366.20872477 568.27529573 C362.5368661 568.2866819 358.86515638 568.2837156 355.19328308 568.28088379 C352.54669213 568.28604842 349.9001134 568.29199603 347.25352746 568.29889059 C340.72262432 568.31406345 334.19175388 568.31843736 327.66083496 568.3195487 C319.84055902 568.32137469 312.0203134 568.33470587 304.20005049 568.34824235 C285.29841183 568.38037888 266.39677637 568.39217035 247.4951153 568.40173985 C238.55645662 568.40640963 229.61780052 568.41361465 220.67914385 568.4211306 C190.09107985 568.44680176 159.50301729 568.46824117 128.91494274 568.4751358 C126.99443263 568.47557907 125.07392253 568.47602264 123.15341242 568.47646651 C121.22822455 568.47690779 119.30303668 568.47734875 117.3778488 568.4777894 C113.5154897 568.47867452 109.65313059 568.47956874 105.79077148 568.48046875 C104.35430826 568.48079692 104.35430826 568.48079692 102.88882557 568.48113173 C71.82628157 568.48839553 40.76383084 568.52024555 9.70132256 568.56684948 C-23.12742499 568.61601345 -55.95611921 568.64347992 -88.78490466 568.64587164 C-92.38685812 568.64621456 -95.98881156 568.64664542 -99.590765 568.6471405 C-100.47768965 568.64725204 -101.36461429 568.64736358 -102.27841544 568.64747849 C-116.56653132 568.6497821 -130.85455165 568.6718478 -145.14263524 568.70091461 C-159.49664053 568.72961123 -173.85052301 568.73613751 -188.20454911 568.72003466 C-196.73712295 568.71110657 -205.26930104 568.71890438 -213.80182308 568.75051167 C-219.49818416 568.76996388 -225.19426699 568.76770116 -230.89062533 568.74763921 C-234.13857853 568.73681983 -237.38561481 568.73883673 -240.63353524 568.76065665 C-244.1308821 568.7826723 -247.62619837 568.7679909 -251.12348652 568.7438736 C-252.63917245 568.76665918 -252.63917245 568.76665918 -254.1854783 568.78990507 C-260.11574625 568.70112985 -263.36821224 567.76156118 -267.65581493 563.57931694 C-271.00852472 559.64013365 -271.7448981 556.96481664 -271.62109375 551.91796875 C-270.44483323 546.39176368 -266.77006088 542.22337672 -263.39013672 537.83203125 C-260.93786474 534.60023482 -258.63822948 531.26085111 -256.3125 527.9375 C-255.28577664 526.48393659 -254.25841752 525.03082207 -253.23046875 523.578125 C-249.84872475 518.79051067 -246.48519704 513.9902531 -243.125 509.1875 C-242.24884033 507.9356189 -242.24884033 507.9356189 -241.35498047 506.65844727 C-238.3853845 502.41413167 -235.41906813 498.16756323 -232.45703125 493.91796875 C-226.80459351 485.81543683 -221.11758072 477.74406553 -215.3125 469.75 C-210.81066442 463.55051844 -206.41157355 457.29239341 -202.09082031 450.96557617 C-197.30960984 443.96946388 -192.41476109 437.05527674 -187.51611328 430.14111328 C-185.00656086 426.59702718 -182.50353419 423.04833865 -180 419.5 C-177.04947917 415.318464 -174.09812363 411.13754221 -171.140625 406.9609375 C-164.73801811 397.91396477 -158.39204009 388.82877643 -152.06787109 379.72680664 C-145.97176247 370.95395082 -139.84861569 362.20026363 -133.71777344 353.45166016 C-130.8103791 349.30213572 -127.90531999 345.15097694 -125 341 C-123.83334425 339.33332569 -122.66667759 337.66665902 -121.5 336 C-120.9225 335.175 -120.345 334.35 -119.75 333.5 C-118 331 -116.25 328.5 -114.5 326 C-113.6335083 324.76213745 -113.6335083 324.76213745 -112.74951172 323.49926758 C-111.58451636 321.83501172 -110.4194774 320.17078639 -109.25439453 318.5065918 C-106.31179589 314.30329077 -103.36999096 310.09943819 -100.4296875 305.89453125 C-94.48305871 297.39189535 -88.52321098 288.89909294 -82.53417969 280.42626953 C-76.92414591 272.48520192 -71.35389765 264.51634681 -65.78222656 256.54833984 C-62.27434999 251.53255688 -58.76390908 246.5185674 -55.25268555 241.50512695 C-52.3193028 237.31615975 -49.38902862 233.12508164 -46.46484375 228.9296875 C-40.81005678 220.82305994 -35.12024183 212.74794225 -29.3125 204.75 C-24.86109237 198.61848909 -20.50531498 192.43288817 -16.23144531 186.17651367 C-8.27579318 174.53371174 -0.13762873 163.0160519 8 151.5 C13.50076026 143.71429443 18.99251075 135.92250422 24.4375 128.09765625 C26.86822295 124.60584997 29.33067696 121.13924051 31.8125 117.68359375 C33.02115329 115.97678903 34.22949781 114.2697656 35.4375 112.5625 C36.01169678 111.77568848 36.58589355 110.98887695 37.17749023 110.17822266 C37.69512939 109.44007324 38.21276855 108.70192383 38.74609375 107.94140625 C39.43723267 106.97763062 39.43723267 106.97763062 40.14233398 105.99438477 C41.3154232 103.26652658 40.89318685 101.79711404 40 99 C38.94645888 97.06010707 38.94645888 97.06010707 37.55078125 95.27734375 C37.03966797 94.58447266 36.52855469 93.89160156 36.00195312 93.17773438 C35.44443359 92.43845703 34.88691406 91.69917969 34.3125 90.9375 C33.11963689 89.32268976 31.92828317 87.70676365 30.73828125 86.08984375 C30.12033691 85.25308105 29.50239258 84.41631836 28.86572266 83.55419922 C25.84319825 79.41632296 22.92333805 75.20824519 20 71 C15.49888115 64.53744743 10.94205486 58.12115587 6.3125 51.75 C0.8152108 44.18289813 -4.51012629 36.50967221 -9.76953125 28.77587891 C-11.06628692 26.90433113 -12.40625545 25.06849183 -13.75 23.23046875 C-16.95999542 18.62167324 -17.75582447 14.54271279 -17 9 C-13.434468 2.00099273 -8.06523148 -1.85223218 0 0 Z " fill="#403D3A" transform="translate(433,156)"/>
<path d="M0 0 C4.68422072 4.29753083 8.10711572 9.2064446 11.6875 14.4375 C12.94086363 16.24907345 14.19477178 18.0602703 15.44921875 19.87109375 C16.05813965 20.75265137 16.66706055 21.63420898 17.29443359 22.54248047 C19.49824847 25.71791713 21.74225697 28.86279558 24 32 C28.61596123 38.43146395 33.15298234 44.91719886 37.6875 51.40625 C41.4441176 56.78097778 45.21406104 62.14589062 49 67.5 C56.3006319 77.82796059 63.54358616 88.19619766 70.79101562 98.56152344 C77.32850038 107.91048387 83.8758133 117.25200655 90.46142578 126.56713867 C94.92426103 132.8834604 99.3572322 139.22049583 103.7890625 145.55859375 C107.51284248 150.88179464 111.24976159 156.19541119 115 161.5 C121.10083589 170.13082265 127.16098551 178.78989108 133.21777344 187.45166016 C136.14376733 191.6354306 139.0719831 195.81764524 142 200 C143.16667759 201.66665902 144.33334425 203.33332569 145.5 205 C146.36625 206.2375 146.36625 206.2375 147.25 207.5 C166.5 235.00000001 166.5 235.00000001 168.25048828 237.50073242 C169.41548364 239.16498828 170.5805226 240.82921361 171.74560547 242.4934082 C174.68820411 246.69670923 177.63000904 250.90056181 180.5703125 255.10546875 C186.03176431 262.91438668 191.49959932 270.7184538 197 278.5 C204.30043688 288.82809975 211.54358516 299.19619623 218.79101562 309.56152344 C226.83240095 321.06114388 234.89887767 332.54238857 243 344 C251.09689984 355.45163946 259.15890669 366.92706303 267.19580078 378.42089844 C269.02383251 381.03406856 270.85346452 383.646111 272.68359375 386.2578125 C275.59986203 390.41957036 278.51372705 394.58299791 281.42529297 398.74804688 C282.44447218 400.20555215 283.46428721 401.66261312 284.48486328 403.11914062 C285.78385895 404.97367876 287.07992734 406.83022118 288.375 408.6875 C289.08398438 409.70199219 289.79296875 410.71648437 290.5234375 411.76171875 C292 414 292 414 292 415 C230.95 415 169.9 415 107 415 C91.32720588 379.17647059 91.32720588 379.17647059 86.13458252 367.11654663 C79.64896221 352.05659885 73.06763257 337.04019383 66.45632935 322.0350647 C61.69783146 311.22854704 57.03243159 300.39508379 52.54663086 289.47192383 C49.15208321 281.25335405 45.51905851 273.14689479 41.86053467 265.04327393 C37.88403237 256.23445496 33.97099541 247.4016003 30.13616943 238.53012085 C29.31885223 236.63969251 28.49965577 234.75008734 27.68017578 232.8605957 C25.14288818 227.00325666 22.63174748 221.13643015 20.171875 215.24609375 C19.72932373 214.1979248 19.28677246 213.14975586 18.83081055 212.06982422 C18.01682354 210.1397584 17.21270508 208.20548373 16.42114258 206.26611328 C14.1063158 200.8056799 11.50491956 195.97519765 7 192 C3.14111342 190.71370447 -0.03030729 190.10056366 -4 191 C-11.36338591 195.31902804 -17.24175165 202.12553813 -23.1875 208.1796875 C-26.0292275 211.02930869 -28.95656787 213.6904701 -32.015625 216.30078125 C-35.20799523 219.03440537 -38.31160502 221.86587702 -41.4296875 224.68359375 C-43.11620613 226.203511 -44.80874259 227.71678276 -46.5078125 229.22265625 C-51.73946132 233.87209964 -56.72275503 238.69668416 -61.64453125 243.671875 C-64.25835397 246.25535483 -66.97786241 248.65888095 -69.765625 251.05078125 C-77.54945948 257.84122426 -85.01635059 265.01042073 -92.5625 272.0625 C-100.74059642 279.70515072 -108.96352235 287.29375942 -117.3125 294.75 C-120.76417811 297.84384864 -124.06241263 301.03709292 -127.3125 304.33984375 C-129.65720857 306.64655936 -132.14208775 308.77129353 -134.6328125 310.91796875 C-138.21892775 314.07209322 -141.70545237 317.33223827 -145.20361328 320.58325195 C-148.25278499 323.41017173 -151.33477616 326.17736605 -154.5 328.875 C-159.02858195 332.79083514 -163.61904807 336.88889254 -164.375 343.0625 C-163.69670648 350.18458195 -159.55878733 355.31720103 -155.38671875 360.953125 C-150.69987551 367.36129459 -146.24996021 373.91878921 -141.8125 380.5 C-140.14663296 382.96538475 -138.47959842 385.42997905 -136.8125 387.89453125 C-136.19862175 388.80263298 -136.19862175 388.80263298 -135.57234192 389.7290802 C-131.30472145 396.03766929 -126.99281515 402.31588974 -122.6574707 408.578125 C-119 413.89106976 -119 413.89106976 -119 415 C-175.76 415 -232.52 415 -291 415 C-289.57204958 412.14409915 -288.23638638 409.75172819 -286.453125 407.15625 C-285.94515381 406.41487793 -285.43718262 405.67350586 -284.91381836 404.90966797 C-284.3647583 404.11447754 -283.81569824 403.31928711 -283.25 402.5 C-282.38870483 401.24727295 -282.38870483 401.24727295 -281.51000977 399.96923828 C-271.60830638 385.59333256 -261.54450489 371.33015304 -251.46777344 357.07666016 C-248.4731425 352.83974553 -245.48205065 348.60033092 -242.49072266 344.36108398 C-240.04305167 340.89269056 -237.59385117 337.42540437 -235.140625 333.9609375 C-228.68927011 324.84489254 -222.29828643 315.68821614 -215.92724609 306.51586914 C-211.4562498 300.0827387 -206.95810615 293.66988012 -202.43310547 287.2746582 C-196.8533761 279.38649682 -191.31911399 271.46660294 -185.78222656 263.54833984 C-182.85623267 259.3645694 -179.9280169 255.18235476 -177 251 C-175.83332241 249.33334098 -174.66665575 247.66667431 -173.5 246 C-166.5 236 -166.5 236 -164.75048828 233.50073242 C-163.58215033 231.83165493 -162.41385616 230.16254678 -161.24560547 228.4934082 C-158.35486511 224.36337662 -155.46340146 220.23385554 -152.5703125 216.10546875 C-146.36438924 207.24792374 -140.17316719 198.38041071 -134 189.5 C-127.26229054 179.80746692 -120.50107883 170.13167641 -113.7265625 160.46484375 C-111.9622998 157.94617913 -110.19966774 155.42638072 -108.4375 152.90625 C-102.49007005 144.40166926 -96.52951555 135.90685067 -90.53857422 127.43286133 C-86.67626528 121.96647404 -82.83547932 116.48523789 -79 111 C-74.197513 104.13181445 -69.377134 97.27674835 -64.5390625 90.43359375 C-60.67663477 84.96693016 -56.83578785 79.4853808 -53 74 C-44.06682697 61.23065225 -35.09971729 48.49376649 -25.93652344 35.88818359 C-21.91407296 30.32872855 -18.03388849 24.68229199 -14.1875 19 C-9.7289883 12.41607357 -5.15794082 6.06174918 0 0 Z " fill="#F8F7F4" transform="translate(492,283)"/>
<path d="M0 0 C1.95965195 -0.00855011 1.95965195 -0.00855011 3.95889282 -0.01727295 C6.71706518 -0.02769362 9.47520926 -0.03359086 12.23339844 -0.03710938 C14.98841983 -0.04144205 17.74311882 -0.05514591 20.49804688 -0.078125 C46.61241332 -0.29110326 72.33542909 1.42758837 98.1015625 5.953125 C98.83778839 6.07940277 99.57401428 6.20568054 100.33255005 6.33578491 C125.79598552 10.71621659 150.49878875 17.11177118 175.0390625 25.203125 C175.9583252 25.50186523 176.87758789 25.80060547 177.82470703 26.10839844 C225.60552532 41.71661695 270.8808086 66.08938749 311.0390625 96.203125 C311.65104492 96.66203125 312.26302734 97.1209375 312.89355469 97.59375 C327.57264996 108.65389934 342.43770599 120.189703 355.25390625 133.4140625 C357.09055249 135.25472766 359.00262196 136.94867596 360.9765625 138.640625 C367.49471996 144.2641334 373.44907775 150.39271557 379.04296875 156.9296875 C381.06151069 159.22869221 383.14645828 161.4569015 385.24438477 163.68334961 C391.42675018 170.26634246 397.07487071 177.1223501 402.56005859 184.29150391 C404.11017167 186.29503402 405.69015366 188.27182984 407.27734375 190.24609375 C465.66850124 263.28523359 500.47820775 355.35021317 510.2421875 475.1640625 C510.24788757 476.47049713 510.25358765 477.77693176 510.25946045 479.12295532 C510.26988112 481.88112768 510.27577836 484.63927176 510.27929688 487.39746094 C510.28362955 490.15248233 510.29733341 492.90718132 510.3203125 495.66210938 C510.53329076 521.77647582 508.81459913 547.49949159 504.2890625 573.265625 C504.16278473 574.00185089 504.03650696 574.73807678 503.90640259 575.49661255 C499.52597091 600.96004802 493.13041632 625.66285125 485.0390625 650.203125 C484.74032227 651.1223877 484.44158203 652.04165039 484.13378906 652.98876953 C468.52557055 700.76958782 444.15280001 746.0448711 414.0390625 786.203125 C413.58015625 786.81510742 413.12125 787.42708984 412.6484375 788.05761719 C401.58828816 802.73671246 390.0524845 817.60176849 376.828125 830.41796875 C374.98745984 832.25461499 373.29351154 834.16668446 371.6015625 836.140625 C365.9780541 842.65878246 359.84947193 848.61314025 353.3125 854.20703125 C351.01349529 856.22557319 348.785286 858.31052078 346.55883789 860.40844727 C339.97584504 866.59081268 333.1198374 872.23893321 325.95068359 877.72412109 C323.94715348 879.27423417 321.97035766 880.85421616 319.99609375 882.44140625 C246.95695391 940.83256374 154.89197433 975.64227025 35.078125 985.40625 C33.77169037 985.41195007 32.46525574 985.41765015 31.11923218 985.42352295 C28.36105982 985.43394362 25.60291574 985.43984086 22.84472656 985.44335938 C20.08970517 985.44769205 17.33500618 985.46139591 14.58007812 985.484375 C-11.53428832 985.69735326 -37.25730409 983.97866163 -63.0234375 979.453125 C-63.75966339 979.32684723 -64.49588928 979.20056946 -65.25442505 979.07046509 C-90.71786052 974.69003341 -115.42066375 968.29447882 -139.9609375 960.203125 C-140.8802002 959.90438477 -141.79946289 959.60564453 -142.74658203 959.29785156 C-190.52740032 943.68963305 -235.8026836 919.31686251 -275.9609375 889.203125 C-276.57291992 888.74421875 -277.18490234 888.2853125 -277.81542969 887.8125 C-292.49452496 876.75235066 -307.35958099 865.216547 -320.17578125 851.9921875 C-322.01242749 850.15152234 -323.92449696 848.45757404 -325.8984375 846.765625 C-332.41659496 841.1421166 -338.37095275 835.01353443 -343.96484375 828.4765625 C-345.98338569 826.17755779 -348.06833328 823.9493485 -350.16625977 821.72290039 C-356.34862518 815.13990754 -361.99674571 808.2838999 -367.48193359 801.11474609 C-369.03204667 799.11121598 -370.61202866 797.13442016 -372.19921875 795.16015625 C-430.59037624 722.12101641 -465.40008275 630.05603683 -475.1640625 510.2421875 C-475.16976257 508.93575287 -475.17546265 507.62931824 -475.18133545 506.28329468 C-475.19175612 503.52512232 -475.19765336 500.76697824 -475.20117188 498.00878906 C-475.20550455 495.25376767 -475.21920841 492.49906868 -475.2421875 489.74414062 C-475.45516576 463.62977418 -473.73647413 437.90675841 -469.2109375 412.140625 C-469.08465973 411.40439911 -468.95838196 410.66817322 -468.82827759 409.90963745 C-464.44784591 384.44620198 -458.05229132 359.74339875 -449.9609375 335.203125 C-449.66219727 334.2838623 -449.36345703 333.36459961 -449.05566406 332.41748047 C-433.44744555 284.63666218 -409.07467501 239.3613789 -378.9609375 199.203125 C-378.50203125 198.59114258 -378.043125 197.97916016 -377.5703125 197.34863281 C-366.51016316 182.66953754 -354.9743595 167.80448151 -341.75 154.98828125 C-339.90933484 153.15163501 -338.21538654 151.23956554 -336.5234375 149.265625 C-330.8999291 142.74746754 -324.77134693 136.79310975 -318.234375 131.19921875 C-315.93537029 129.18067681 -313.707161 127.09572922 -311.48071289 124.99780273 C-304.89772004 118.81543732 -298.0417124 113.16731679 -290.87255859 107.68212891 C-288.86902848 106.13201583 -286.89223266 104.55203384 -284.91796875 102.96484375 C-211.87882891 44.57368626 -119.81384933 9.76397975 0 0 Z M-71.9609375 34.203125 C-73.54793457 34.50089844 -73.54793457 34.50089844 -75.16699219 34.8046875 C-90.38722336 37.68276462 -105.19941017 41.51263803 -119.9609375 46.203125 C-121.36545166 46.64930176 -121.36545166 46.64930176 -122.79833984 47.10449219 C-172.47601384 63.13513878 -219.65008873 88.35483975 -260.9609375 120.203125 C-261.77594727 120.82888428 -261.77594727 120.82888428 -262.60742188 121.46728516 C-280.79185965 135.45810544 -297.59716488 150.76365877 -313.8359375 166.953125 C-314.33439178 167.44890045 -314.83284607 167.9446759 -315.34640503 168.45547485 C-321.10522147 174.19080287 -326.69896184 180.00535098 -331.9609375 186.203125 C-332.94547135 187.33302842 -333.93111611 188.46196498 -334.91796875 189.58984375 C-341.56236137 197.24825387 -347.91244467 205.06439275 -353.9609375 213.203125 C-354.44643066 213.85200684 -354.93192383 214.50088867 -355.43212891 215.16943359 C-383.64010491 253.00245849 -408.76961392 296.22219085 -422.77734375 341.46875 C-423.60985972 344.09543405 -424.48186628 346.63196779 -425.46484375 349.19921875 C-426.94631697 353.08908885 -428.17997872 357.01825425 -429.3359375 361.015625 C-429.54798828 361.74644287 -429.76003906 362.47726074 -429.97851562 363.23022461 C-430.6467371 365.55249134 -431.30595013 367.87709259 -431.9609375 370.203125 C-432.17008789 370.94498047 -432.37923828 371.68683594 -432.59472656 372.45117188 C-436.3481534 385.90241984 -439.35891237 399.48453788 -441.9609375 413.203125 C-442.23768311 414.64461914 -442.23768311 414.64461914 -442.52001953 416.11523438 C-453.59882632 475.45665822 -451.0351763 538.05390074 -437.52099609 596.74560547 C-437.01219318 598.97821668 -436.53657184 601.21443253 -436.07421875 603.45703125 C-431.97418215 622.78744968 -425.33863522 641.89427041 -417.9609375 660.203125 C-417.6201416 661.05696777 -417.2793457 661.91081055 -416.92822266 662.79052734 C-404.77512426 693.09225269 -390.3305297 722.16679089 -371.9609375 749.203125 C-371.42887695 749.98751953 -370.89681641 750.77191406 -370.34863281 751.58007812 C-358.2514594 769.32446059 -345.24993096 786.17249733 -330.9609375 802.203125 C-330.15269531 803.12351562 -329.34445312 804.04390625 -328.51171875 804.9921875 C-322.02006254 812.24695305 -315.14456089 819.1236546 -308.2734375 826.015625 C-307.77579895 826.51594238 -307.2781604 827.01625977 -306.76544189 827.53173828 C-301.01258325 833.3080567 -295.20037589 838.95028195 -288.9609375 844.203125 C-288.33807861 844.73268799 -287.71521973 845.26225098 -287.07348633 845.80786133 C-236.07599167 888.91544823 -176.35491014 922.78359789 -111.9609375 941.203125 C-110.97561035 941.48639648 -109.9902832 941.76966797 -108.97509766 942.06152344 C-94.41453065 946.2077782 -79.89251487 949.71532614 -64.9609375 952.203125 C-63.76694336 952.40679688 -62.57294922 952.61046875 -61.34277344 952.8203125 C10.76115849 965.0321864 86.35767131 961.25253617 156.0390625 938.203125 C156.74111816 937.97375244 157.44317383 937.74437988 158.16650391 937.50805664 C209.28518491 920.68981429 257.44703112 896.20183588 300.0390625 863.203125 C300.57805176 862.78885254 301.11704102 862.37458008 301.67236328 861.94775391 C319.42546787 848.29035274 335.88979981 833.40379478 351.7890625 817.640625 C352.6644165 816.77832275 353.53977051 815.91602051 354.44165039 815.02758789 C359.64685947 809.82926987 364.43957021 804.45509387 369.015625 798.6940918 C371.01922646 796.2275443 373.11863517 793.89820967 375.2890625 791.578125 C395.99506875 768.7835129 413.35381992 741.56962839 427.81494141 714.48681641 C429.08567014 712.11617488 430.38022276 709.7594945 431.67578125 707.40234375 C448.12229936 677.13827195 460.47408457 644.52906144 469.0390625 611.203125 C469.30170898 610.20667969 469.56435547 609.21023438 469.83496094 608.18359375 C473.51647057 594.14926037 476.22162019 580.07894097 478.39111328 565.74560547 C479.99154692 555.18164631 479.99154692 555.18164631 481.109375 550.6875 C482.54298709 544.53207032 482.78782144 538.24499145 483.1640625 531.953125 C483.20542328 531.2649469 483.24678406 530.5767688 483.28939819 529.86773682 C488.25767276 445.05279696 472.16791966 362.37504633 434.0390625 286.203125 C433.55711426 285.23133301 433.07516602 284.25954102 432.57861328 283.25830078 C414.56932164 247.09944871 391.02358595 212.44445055 363.453125 182.828125 C361.56608865 180.77620198 359.74650572 178.69785743 357.93359375 176.58203125 C353.68368842 171.70915701 349.13084899 167.14439568 344.55102539 162.5847168 C343.10381865 161.14287279 341.66204224 159.69575384 340.22070312 158.24804688 C334.99685863 153.02011723 329.66978104 147.99019795 324.0390625 143.203125 C322.96757056 142.26566928 321.89720809 141.32692061 320.828125 140.38671875 C271.8590408 97.72927382 215.31196978 67.17302436 154.0390625 46.203125 C153.01723877 45.84959961 151.99541504 45.49607422 150.94262695 45.13183594 C120.72273491 34.82578468 87.75684282 30.08631911 56.0390625 27.203125 C55.07363525 27.1088623 54.10820801 27.01459961 53.11352539 26.91748047 C40.80331085 25.86213043 28.44796578 25.95934464 16.1015625 25.953125 C14.89831329 25.95245026 13.69506409 25.95177551 12.45535278 25.95108032 C-16.26397624 25.97663366 -43.73105261 28.78403175 -71.9609375 34.203125 Z " fill="#403D3A" transform="translate(474.9609375,-0.203125)"/>
<path d="M0 0 C2.54339623 3.10169141 4.05617031 6.16632244 5.57421875 9.87109375 C6.06857422 11.06613525 6.56292969 12.26117676 7.07226562 13.49243164 C7.4653894 14.45295944 7.4653894 14.45295944 7.86645508 15.43289185 C9.2975169 18.9268763 10.74912122 22.41232011 12.19921875 25.8984375 C12.50552216 26.63580643 12.81182556 27.37317535 13.12741089 28.13288879 C16.67071975 36.64433005 20.33124703 45.10454898 24 53.5625 C24.33797607 54.34222168 24.67595215 55.12194336 25.02416992 55.92529297 C26.70833189 59.81046242 28.39380789 63.69505874 30.08056641 67.57910156 C31.87246141 71.70536615 33.66146198 75.83287853 35.44921875 79.9609375 C38.10605487 86.09541169 40.76438835 92.22923528 43.42333984 98.36279297 C45.84480828 103.94889344 48.26545688 109.53534908 50.68612671 115.12179565 C51.49488678 116.98820003 52.30370804 118.85457787 53.11254883 120.72094727 C55.60616262 126.47495791 58.0994239 132.2291204 60.59129333 137.98388672 C61.45503811 139.97856382 62.31893568 141.97317467 63.18286133 143.96777344 C64.29520058 146.53590687 65.406944 149.10429706 66.51831055 151.67285156 C68.78662312 156.91146493 71.05846205 162.14796403 73.37109375 167.3671875 C73.87503662 168.50631592 73.87503662 168.50631592 74.38916016 169.66845703 C75.23129852 171.56694241 76.07828264 173.46327641 76.92578125 175.359375 C78 178 78 178 78 180 C26.85 180 -24.3 180 -77 180 C-75.0217906 173.40596868 -73.03979029 167.3515678 -70.2890625 161.12109375 C-69.92891052 160.29236755 -69.56875854 159.46364136 -69.19769287 158.60980225 C-68.41931319 156.82036808 -67.63839299 155.03203723 -66.85516357 153.24472046 C-65.15621293 149.36773279 -63.46952988 145.48544475 -61.78201294 141.60346985 C-60.8889817 139.54939545 -59.99531533 137.49559706 -59.1010437 135.44206238 C-54.58899568 125.07567265 -50.14210344 114.68173947 -45.69924927 104.28555298 C-38.24526982 86.84712671 -30.73508254 69.43461917 -23.13623047 52.05883789 C-19.54570266 43.84738525 -15.97124942 35.62946309 -12.42578125 27.3984375 C-12.0520488 26.53134155 -11.67831635 25.66424561 -11.29325867 24.77087402 C-9.49615598 20.60079985 -7.7015642 16.42967396 -5.91088867 12.25683594 C-5.27402225 10.77795324 -4.6370646 9.29910984 -4 7.8203125 C-3.70922073 7.14012054 -3.41844147 6.45992859 -3.11885071 5.75912476 C-1.11351443 1.11351443 -1.11351443 1.11351443 0 0 Z " fill="#C17959" transform="translate(492,518)"/>
<path d="M0 0 C0 3.49359271 -0.85892978 5.07262124 -2.421875 8.1796875 C-2.94604004 9.23728271 -3.47020508 10.29487793 -4.01025391 11.38452148 C-4.58437012 12.53637939 -5.15848633 13.6882373 -5.75 14.875 C-10.36942162 24.27245337 -14.68313506 33.73123973 -18.625 43.4375 C-23.69012999 55.9063065 -28.96059217 68.27651377 -34.3125 80.625 C-35.12755451 82.50674082 -35.94257736 84.38849535 -36.75756836 86.27026367 C-37.97496043 89.08100825 -39.19240588 91.89172946 -40.41023254 94.70228577 C-44.52718518 104.20768625 -48.61093356 113.72722278 -52.6875 123.25 C-53.01368317 124.01177551 -53.33986633 124.77355103 -53.67593384 125.55841064 C-55.45148592 129.70523801 -57.22620513 133.85242062 -59 138 C-63.15694296 136.61435235 -64.47639144 133.70321904 -66.75390625 130.17578125 C-67.21425766 129.47793015 -67.67460907 128.78007904 -68.14891052 128.06108093 C-69.62780941 125.81650557 -71.09564239 123.56495903 -72.5625 121.3125 C-74.00083161 119.1158503 -75.44154483 116.9208053 -76.88461304 114.7272644 C-77.83802306 113.27797632 -78.78922271 111.8272317 -79.7381897 110.37503052 C-82.06977597 106.82846925 -84.45067664 103.34403904 -86.97998047 99.93505859 C-87.68609718 98.97976509 -87.68609718 98.97976509 -88.40647888 98.00517273 C-89.29754973 96.81097851 -90.19959485 95.62486791 -91.114151 94.44856262 C-94.03589983 90.53678527 -94.03589983 90.53678527 -93.84643555 87.70385742 C-92.80305541 85.60355457 -91.70879793 84.59362605 -89.875 83.125 C-85.6960861 79.63508266 -81.71572427 75.97738023 -77.75 72.25 C-72.18370066 67.03366106 -66.58701119 61.85465682 -60.95703125 56.70703125 C-56.16403796 52.32372286 -51.39824922 47.91087479 -46.62792969 43.50292969 C-45.03717213 42.03431788 -43.44467301 40.5676212 -41.8515625 39.1015625 C-35.11486845 32.89879838 -28.42426178 26.64925097 -21.75317383 20.37597656 C-17.24443752 16.14420313 -12.67728164 11.99088633 -8.0625 7.875 C-5.27528809 5.34117099 -2.62835228 2.69751945 0 0 Z " fill="#F6F6F3" transform="translate(453,540)"/>
<path d="M0 0 C4.13191546 1.25086031 7.58148995 2.7674491 11.23828125 5.0546875 C12.21466553 5.66328613 13.1910498 6.27188477 14.19702148 6.89892578 C15.73918335 7.87708252 15.73918335 7.87708252 17.3125 8.875 C18.91557007 9.88602783 18.91557007 9.88602783 20.55102539 10.91748047 C39.59311681 23.01400226 57.73365633 36.48057464 75 51 C75.55816406 51.46792969 76.11632812 51.93585938 76.69140625 52.41796875 C83.09917652 57.80160295 89.38509551 63.19552849 95.21484375 69.2109375 C97.05148999 71.05160266 98.96355946 72.74555096 100.9375 74.4375 C107.45565746 80.0610084 113.41001525 86.18959057 119.00390625 92.7265625 C121.02244819 95.02556721 123.10739578 97.2537765 125.20532227 99.48022461 C131.38768768 106.06321746 137.03580821 112.9192251 142.52099609 120.08837891 C144.07110917 122.09190902 145.65109116 124.06870484 147.23828125 126.04296875 C167.50410305 151.39266648 183.92127952 179.3335805 199 208 C199.75434326 209.39943848 199.75434326 209.39943848 200.52392578 210.82714844 C201.22557861 212.16181152 201.22557861 212.16181152 201.94140625 213.5234375 C202.36236572 214.31411621 202.7833252 215.10479492 203.21704102 215.91943359 C204 218 204 218 203 221 C202.42894531 219.82308594 201.85789062 218.64617187 201.26953125 217.43359375 C175.83254947 165.50820648 142.01436531 119.05473799 101.25 78.125 C100.45779053 77.32811768 99.66558105 76.53123535 98.84936523 75.71020508 C94.05995781 70.9338246 89.13195797 66.40356818 84 62 C82.84339043 60.97844075 81.68839778 59.95504743 80.53515625 58.9296875 C71.96261849 51.36589989 63.08214729 44.33608394 53.94140625 37.47412109 C52.2218838 36.16847766 50.52739164 34.83965382 48.84375 33.48828125 C34.95226438 22.42992756 19.66794018 13.10889996 4.52026367 3.88085938 C2.99767445 2.94588268 1.49594871 1.97703472 0 1 C0 0.67 0 0.34 0 0 Z " fill="#E9E9E7" transform="translate(735,64)"/>
<path d="M0 0 C0.99 0.495 0.99 0.495 2 1 C1.48727539 1.34667725 0.97455078 1.69335449 0.44628906 2.05053711 C-9.54542602 8.81720578 -19.44873431 15.62001583 -29 23 C-30.41274224 24.08075292 -31.82550419 25.16148009 -33.23828125 26.2421875 C-42.74763869 33.54640315 -52.03177882 41.03984533 -61 49 C-61.96035156 49.84820312 -62.92070312 50.69640625 -63.91015625 51.5703125 C-71.6356408 58.55276626 -79.00264311 65.89903642 -86.375 73.25 C-86.89737244 73.7696936 -87.41974487 74.28938721 -87.95794678 74.8248291 C-93.85734868 80.70128155 -99.62752437 86.63053382 -105 93 C-105.7101123 93.82757813 -105.7101123 93.82757813 -106.43457031 94.671875 C-130.38330991 122.58653949 -151.11956761 152.85843725 -169 185 C-169.33 184.34 -169.66 183.68 -170 183 C-169.32592773 181.28613281 -169.32592773 181.28613281 -168.18359375 179.203125 C-167.75643066 178.42050293 -167.32926758 177.63788086 -166.88916016 176.83154297 C-166.4101123 175.97963379 -165.93106445 175.12772461 -165.4375 174.25 C-164.6957251 172.9199292 -164.6957251 172.9199292 -163.93896484 171.56298828 C-154.38393247 154.64699821 -143.65094204 138.53714441 -132 123 C-131.54109375 122.38801758 -131.0821875 121.77603516 -130.609375 121.14550781 C-119.54922566 106.46641254 -108.013422 91.60135651 -94.7890625 78.78515625 C-92.94839734 76.94851001 -91.25444904 75.03644054 -89.5625 73.0625 C-83.9389916 66.54434254 -77.81040943 60.58998475 -71.2734375 54.99609375 C-68.97443279 52.97755181 -66.7462235 50.89260422 -64.51977539 48.79467773 C-57.93678254 42.61231232 -51.0807749 36.96419179 -43.91162109 31.47900391 C-41.90809098 29.92889083 -39.93129516 28.34890884 -37.95703125 26.76171875 C-25.80611125 17.0532017 -13.03228751 8.47248027 0 0 Z " fill="#E8E7E4" transform="translate(228,76)"/>
<path d="M0 0 C0.33 0.99 0.66 1.98 1 3 C-0.21484375 4.82421875 -0.21484375 4.82421875 -1.9375 6.6875 C-2.50339844 7.31011719 -3.06929688 7.93273437 -3.65234375 8.57421875 C-4.09707031 9.04472656 -4.54179688 9.51523438 -5 10 C-5.33 9.34 -5.66 8.68 -6 8 C-4.02 5.36 -2.04 2.72 0 0 Z " fill="#F0F0ED" transform="translate(117,172)"/>
</svg>
